<?xml version="1.0" encoding="UTF-8" standalone="no"?>
<svg
   fill="none"
   height="98"
   viewBox="0 0 1495 98"
   width="1495"
   version="1.1"
   id="svg122"
   sodipodi:docname="seamlex-brands.svg"
   inkscape:version="1.1 (c68e22c387, 2021-05-23)"
   xmlns:inkscape="http://www.inkscape.org/namespaces/inkscape"
   xmlns:sodipodi="http://sodipodi.sourceforge.net/DTD/sodipodi-0.dtd"
   xmlns:xlink="http://www.w3.org/1999/xlink"
   xmlns="http://www.w3.org/2000/svg"
   xmlns:svg="http://www.w3.org/2000/svg">
  <defs
     id="defs126">
    <linearGradient
       id="a-1"
       gradientUnits="userSpaceOnUse"
       x1="-2901.9519"
       y1="923.573"
       x2="-2061.249"
       y2="1420.3311"
       gradientTransform="matrix(0.1234,0,0,-0.1234,1158.33,1550.273)">
      <stop
         offset="0"
         stop-color="#909ca9"
         id="stop2-3" />
      <stop
         offset="1"
         stop-color="#ededee"
         id="stop4-3" />
    </linearGradient>
    <linearGradient
       id="b-9"
       gradientUnits="userSpaceOnUse"
       x1="-2882.7"
       y1="10288.81"
       x2="-2206.249"
       y2="10288.81"
       gradientTransform="matrix(0.1234,0,0,-0.1234,1158.33,1550.273)">
      <stop
         offset="0"
         stop-color="#939fab"
         id="stop9" />
      <stop
         offset="1"
         stop-color="#dcdee1"
         id="stop11-8" />
    </linearGradient>
    <radialGradient
       id="c-8"
       cx="-14217.448"
       cy="7277.7051"
       r="898.12"
       gradientTransform="matrix(-0.1185,-0.0178,-0.036,0.237,-198.955,-1314.415)"
       gradientUnits="userSpaceOnUse">
      <stop
         offset="0"
         stop-color="#ee352c"
         id="stop16" />
      <stop
         offset="1"
         stop-color="#a91d22"
         id="stop18-1" />
    </radialGradient>
  </defs>
  <sodipodi:namedview
     id="namedview124"
     pagecolor="#ffffff"
     bordercolor="#666666"
     borderopacity="1.0"
     inkscape:pageshadow="2"
     inkscape:pageopacity="0.0"
     inkscape:pagecheckerboard="0"
     showgrid="false"
     inkscape:zoom="0.50041403"
     inkscape:cx="248.79398"
     inkscape:cy="8.9925536"
     inkscape:window-width="1920"
     inkscape:window-height="1027"
     inkscape:window-x="-8"
     inkscape:window-y="-8"
     inkscape:window-maximized="1"
     inkscape:current-layer="svg122" />
  <linearGradient
     id="a"
     gradientUnits="userSpaceOnUse"
     x1="471.212"
     x2="425.871"
     y1="72.7488"
     y2="-4.60297">
    <stop
       offset="0"
       stop-color="#c5259a"
       id="stop2" />
    <stop
       offset=".169697"
       stop-color="#55369b"
       id="stop4" />
    <stop
       offset=".575758"
       stop-color="#4779c6"
       id="stop6" />
    <stop
       offset="1"
       stop-color="#70d0e4"
       id="stop8" />
  </linearGradient>
  <linearGradient
     id="b"
     gradientUnits="userSpaceOnUse"
     x1="503.813"
     x2="503.813"
     y1="2.94141"
     y2="79.4543">
    <stop
       offset="0"
       stop-color="#7a2393"
       id="stop11" />
    <stop
       offset=".472727"
       stop-color="#951e93"
       id="stop13" />
    <stop
       offset="1"
       stop-color="#ee197f"
       id="stop15" />
  </linearGradient>
  <linearGradient
     id="c"
     gradientUnits="userSpaceOnUse"
     x1="459"
     x2="459"
     y1="2.94141"
     y2="80.2184">
    <stop
       offset="0"
       stop-color="#7a2393"
       id="stop18" />
    <stop
       offset=".472727"
       stop-color="#951e93"
       id="stop20" />
    <stop
       offset=".890909"
       stop-color="#ee197f"
       id="stop22" />
    <stop
       offset="1"
       stop-color="#ee1a98"
       id="stop24" />
  </linearGradient>
  <linearGradient
     id="d"
     gradientUnits="userSpaceOnUse"
     x1="419.429"
     x2="430.139"
     y1="16.0342"
     y2="2.6294">
    <stop
       offset="0"
       stop-color="#423a9c"
       id="stop27" />
    <stop
       offset=".327273"
       stop-color="#4779c6"
       id="stop29" />
    <stop
       offset="1"
       stop-color="#70d0e4"
       id="stop31" />
  </linearGradient>
  <linearGradient
     id="e"
     gradientUnits="userSpaceOnUse"
     x1="504.349"
     x2="493.995"
     y1="67.333"
     y2="79.6408">
    <stop
       offset="0"
       stop-color="#3f2d92"
       id="stop34" />
    <stop
       offset=".193939"
       stop-color="#951e93"
       id="stop36" />
    <stop
       offset="1"
       stop-color="#ee197f"
       id="stop38" />
  </linearGradient>
  <linearGradient
     id="f">
    <stop
       offset="0"
       stop-color="#2bdbdc"
       id="stop41" />
    <stop
       offset="1"
       stop-color="#0067f4"
       id="stop43" />
  </linearGradient>
  <linearGradient
     id="g"
     gradientUnits="userSpaceOnUse"
     x1="1289.01"
     x2="1289.01"
     xlink:href="#f"
     y1="0"
     y2="49.9893" />
  <linearGradient
     id="h"
     gradientUnits="userSpaceOnUse"
     x1="1264"
     x2="1264"
     xlink:href="#f"
     y1="24.9893"
     y2="74.9893" />
  <linearGradient
     id="i"
     gradientUnits="userSpaceOnUse"
     x1="1276.5"
     x2="1276.5"
     xlink:href="#f"
     y1="49.9893"
     y2="74.9893" />
  <linearGradient
     id="j"
     gradientUnits="userSpaceOnUse"
     x1="1251.5"
     x2="1251.5"
     xlink:href="#f"
     y1="24.9893"
     y2="49.9893" />
  <path
     d="m 725.38962,69.240902 c 0.475,0.2375 0.95,0.475 1.9,0.7126 3.563,1.6627 6.889,2.6128 10.927,2.6128 13.064,0 23.99,-10.9264 23.99,-23.9905 0,-13.0641 -10.926,-23.9905 -23.753,-23.9905 -8.551,0 -16.389,8.3135 -21.615,13.5392 l -6.413,6.4133 -10.927,-10.9264 c -4.275,-4.2755 -9.026,-9.0261 -17.339,-9.0261 -13.54,0.2375 -24.466,11.1639 -24.466,24.228 0,13.0642 10.926,23.9905 23.753,23.9905 3.563,0 7.601,-0.7126 10.926,-2.6128 3.088,-1.9002 11.402,-6.8884 16.152,-11.639 l 1.188,-1.1876 5.938,5.7007 c 4.038,3.563 7.126,4.9881 9.739,6.1758 z m -3.801,-23.2779 c 0.951,-0.9501 1.901,-1.9003 2.613,-2.6128 3.801,-3.8005 9.739,-9.5012 14.015,-9.5012 8.076,0 15.201,7.6009 15.201,15.6769 0,8.076 -6.888,15.2019 -15.201,15.2019 -2.613,0 -6.889,-1.4252 -9.502,-2.8503 -6.888,-4.038 -12.589,-10.6889 -12.589,-10.6889 z m -19.002,6.1758 c -3.8,3.8004 -11.164,8.551 -13.777,9.9762 -2.375,1.1876 -4.275,1.9002 -6.888,1.9002 -8.076,0 -15.202,-6.8883 -15.202,-15.2019 0,-8.076 6.888,-15.2019 15.202,-15.2019 4.751,0 6.888,2.1378 10.926,6.4133 l 11.164,10.9264 z"
     fill="#756af8"
     id="path80" />
  <path
     d="m 770.28262,63.777702 c -0.475,-0.4751 -0.713,-1.4252 -0.713,-2.3753 v -24.4656 c 0,-0.9501 0.238,-1.9002 0.951,-2.3753 0.712,-0.7125 1.425,-0.9501 2.375,-0.9501 0.95,0 1.9,0.2376 2.375,0.9501 0.713,0.7126 0.95,1.4252 0.95,2.3753 v 22.0903 h 11.164 c 2.138,0 3.088,0.9501 3.088,2.8504 0,1.9002 -0.95,2.8503 -3.088,2.8503 h -14.727 c -1.187,-0.2375 -1.9,-0.475 -2.375,-0.9501 z"
     fill="#756af8"
     id="path82" />
  <path
     d="m 794.03562,38.362002 c -0.475,-0.4751 -0.713,-0.9501 -0.95,-1.6627 -0.238,-0.9501 0,-1.9002 0.713,-2.6128 0.475,-0.7126 1.187,-0.9501 2.137,-1.1877 0.713,-0.2375 1.663,-0.2375 2.376,0 1.662,0.4751 2.612,2.6129 2.137,4.038 -0.95,2.6129 -4.513,3.0879 -6.413,1.4252 z m 0.238,25.6532 c -0.713,-0.475 -0.951,-1.4252 -0.951,-2.3753 v -15.9145 c 0,-0.9501 0.238,-1.9002 0.951,-2.3753 0.712,-0.475 1.425,-0.7126 2.375,-0.7126 0.95,0 1.663,0.2376 2.375,0.7126 0.713,0.4751 0.95,1.1877 0.95,2.3753 v 15.9145 c 0,0.9501 -0.237,1.9003 -0.95,2.3753 -1.187,0.7126 -2.613,0.9501 -3.8,0.4751 -0.475,0 -0.713,-0.2376 -0.95,-0.4751 z"
     fill="#756af8"
     id="path84" />
  <path
     d="m 824.20162,45.012802 c 1.188,1.4252 1.901,3.8005 1.901,6.8884 v 9.9762 c 0,0.9501 -0.238,1.6627 -0.951,2.3753 -0.712,0.4751 -1.425,0.7126 -2.375,0.7126 -0.95,0 -1.9,-0.2375 -2.375,-0.7126 -0.475,-0.4751 -0.95,-1.1877 -0.95,-2.3753 v -9.7387 c 0,-1.4252 -0.238,-2.6129 -0.713,-3.0879 -0.475,-0.7126 -1.425,-0.9501 -2.613,-0.9501 -1.425,0 -2.375,0.475 -3.325,1.4252 -0.713,0.9501 -1.188,2.1377 -1.188,3.5629 v 9.2636 c 0,0.9502 -0.237,1.6628 -0.95,2.3753 -0.475,0.4751 -1.425,0.7126 -2.375,0.7126 -0.95,0 -1.9,-0.2375 -2.375,-0.7126 -0.713,-0.475 -0.951,-1.1876 -0.951,-2.3753 v -15.9144 c 0,-0.9502 0.238,-1.6627 0.951,-2.1378 0.712,-0.4751 1.425,-0.7126 2.375,-0.7126 0.95,0 1.663,0.2375 2.138,0.7126 0.475,0.4751 0.95,1.1876 0.95,2.1378 v 0.7126 c 0,-0.2376 0.237,-0.4751 0.237,-0.4751 0.238,-0.2375 0.238,-0.2375 0.475,-0.4751 0.238,-0.2375 0.713,-0.7126 0.95,-0.9501 1.663,-1.1876 3.801,-1.9002 5.701,-1.9002 2.138,-0.2376 4.276,0 5.463,1.6627 z"
     fill="#756af8"
     id="path86" />
  <path
     d="m 849.61362,59.027002 c 0.24,0.2376 0.24,0.2376 0.24,0.4751 0.24,0.7126 0.24,1.6627 -0.24,2.3753 -0.47,0.9501 -1.18,1.1876 -1.9,1.6627 -0.95,0.475 -1.9,0.7126 -2.85,0.9501 -1.42,0.2375 -2.61,0.4751 -3.56,0.4751 -2.37,0 -4.28,-0.4751 -6.18,-1.4252 -1.66,-0.9501 -3.08,-2.1378 -4.033,-3.8005 -0.95,-1.6627 -1.426,-3.5629 -1.426,-5.9382 0,-2.1378 0.476,-4.038 1.426,-5.7007 0.953,-1.6627 2.133,-3.0879 3.803,-4.038 1.66,-0.9502 3.32,-1.4252 5.46,-1.4252 1.9,0 3.56,0.475 5.23,1.1876 1.42,0.9502 2.61,2.1378 3.32,3.563 0.71,1.6627 1.19,3.3254 1.19,5.4632 0,0.7125 -0.24,1.1876 -0.48,1.4251 -0.23,0.2376 -0.71,0.4751 -1.18,0.4751 h -12.12 c 0.24,1.6627 0.71,2.8503 1.67,3.8005 0.95,0.9501 2.13,1.1876 3.56,1.1876 0.95,0 1.66,0 2.37,-0.2375 0.72,-0.2375 1.43,-0.4751 2.14,-0.7126 0.71,-0.2375 1.43,-0.4751 2.14,-0.4751 0.24,0 0.71,0 0.95,0.2376 0.24,0 0.47,0.2375 0.47,0.475 z m -11.87,-10.6888 c -0.72,0.7126 -1.19,1.9002 -1.43,3.5629 h 8.32 c 0,-1.4251 -0.48,-2.6128 -1.19,-3.5629 -0.71,-0.7126 -1.66,-1.1877 -2.85,-1.1877 -1.19,0 -2.14,0.4751 -2.85,1.1877 z"
     fill="#756af8"
     id="path88" />
  <path
     d="m 855.79362,64.015202 c -0.71,-0.475 -0.95,-1.4251 -0.95,-2.3753 v -24.7031 c 0,-0.9501 0.24,-1.9002 0.95,-2.3753 0.71,-0.7125 1.42,-0.9501 2.38,-0.9501 0.95,0 1.9,0.2376 2.37,0.9501 0.71,0.7126 0.95,1.4252 0.95,2.3753 v 24.4656 c 0,0.7126 -0.24,1.6627 -0.71,2.3753 -0.95,0.7126 -2.38,1.4252 -3.8,0.9501 -0.48,-0.2375 -0.95,-0.475 -1.19,-0.7126 z"
     fill="#756af8"
     id="path90" />
  <path
     d="m 871.23362,63.540102 c -1.66,-0.9501 -2.85,-2.1377 -3.8,-3.8004 -0.95,-1.6627 -1.43,-3.563 -1.43,-5.9383 0,-2.1377 0.48,-4.2755 1.43,-5.9382 0.95,-1.6627 2.37,-3.0879 4.04,-4.038 1.66,-0.9501 3.8,-1.4252 5.94,-1.4252 1.18,0 2.37,0.2375 3.56,0.4751 0.95,0.2375 2.14,0.7125 3.09,1.4251 1.42,0.9502 1.9,2.8504 0.95,4.2756 -0.24,0.2375 -0.24,0.475 -0.72,0.7126 -0.47,0.2375 -0.71,0 -1.18,0 -0.95,-0.2376 -1.9,-0.4751 -2.85,-0.9502 -0.72,-0.2375 -1.43,-0.7125 -2.38,-0.7125 -1.66,0 -2.85,0.7125 -4.04,1.6627 -0.95,0.9501 -1.19,2.6128 -1.19,4.513 0,1.9003 0.48,3.563 1.19,4.5131 0.95,0.9501 2.14,1.6627 3.8,1.6627 0.95,0 1.43,-0.2375 2.38,-0.4751 0.71,-0.2375 1.19,-0.475 1.9,-0.7126 1.19,-0.475 2.14,-0.475 2.85,0.2376 0.47,0.475 0.47,1.1876 0.47,1.9002 0,1.1877 -0.47,1.9003 -1.42,2.3753 -0.95,0.4751 -1.9,0.9501 -3.33,1.4252 -1.42,0.475 -2.61,0.4751 -3.8,0.4751 -1.9,-0.2376 -3.8,-0.7126 -5.46,-1.6628 z"
     fill="#756af8"
     id="path92" />
  <path
     d="m 893.08362,63.540102 c -1.66,-0.9501 -3.09,-2.1378 -4.04,-3.8005 -0.95,-1.6627 -1.42,-3.5629 -1.42,-5.9382 0,-2.3753 0.47,-4.2756 1.42,-5.9383 0.95,-1.6627 2.14,-2.8503 4.04,-3.8004 1.66,-0.9502 3.8,-1.4252 5.94,-1.4252 2.14,0 4.28,0.475 5.94,1.4252 1.66,0.9501 3.09,2.1377 4.04,3.8004 0.95,1.6627 1.42,3.563 1.42,5.9383 0,2.3753 -0.47,4.2755 -1.42,5.9382 -0.95,1.6627 -2.14,2.8504 -4.04,3.8005 -1.66,0.9501 -3.8,1.4252 -5.94,1.4252 -2.14,0 -4.28,-0.4751 -5.94,-1.4252 z m 10.69,-9.7387 c 0,-2.1378 -0.47,-3.563 -1.19,-4.5131 -0.71,-0.9501 -1.9,-1.4252 -3.56,-1.4252 -3.09,0 -4.75,2.1378 -4.75,6.1758 0,4.038 1.66,6.1758 4.75,6.1758 3.33,-0.2375 4.75,-2.3753 4.75,-6.4133 z"
     fill="#756af8"
     id="path94" />
  <path
     d="m 933.46362,45.012902 c 1.19,1.4251 1.9,3.8004 1.9,6.8883 v 9.9763 c 0,0.9501 -0.24,1.6627 -0.95,2.3753 -0.71,0.475 -1.42,0.7125 -2.37,0.7125 -0.95,0 -1.9,-0.2375 -2.38,-0.7125 -0.47,-0.4751 -0.95,-1.1877 -0.95,-2.3753 v -9.7388 c 0,-1.4251 -0.24,-2.6128 -0.71,-3.0879 -0.48,-0.7125 -1.43,-0.9501 -2.61,-0.9501 -1.43,0 -2.38,0.4751 -3.33,1.4252 -0.71,0.9501 -1.19,2.1378 -1.19,3.563 v 9.2636 c 0,0.9501 -0.23,1.6627 -0.95,2.3753 -0.47,0.4751 -1.42,0.7126 -2.37,0.7126 -0.95,0 -1.9,-0.2375 -2.38,-0.7126 -0.71,-0.4751 -0.95,-1.1876 -0.95,-2.3753 v -15.9145 c 0,-0.9501 0.24,-1.6627 0.95,-2.1377 0.71,-0.4751 1.43,-0.7126 2.38,-0.7126 0.95,0 1.66,0.2375 2.14,0.7126 0.47,0.475 0.95,1.1876 0.95,2.1377 v 0.7126 c 0,-0.475 0.71,-1.1876 1.18,-1.4252 0.48,-0.475 0.95,-0.7126 1.43,-0.9501 2.85,-1.6627 7.84,-2.6128 10.21,0.2376 z"
     fill="#756af8"
     id="path96" />
  <path
     d="m 943.91362,64.490202 c -0.23,0 -0.71,-0.2375 -0.95,-0.2375 -0.95,-0.2375 -1.9,-0.7126 -2.61,-1.1876 -0.47,-0.2376 -0.71,-0.7126 -0.95,-0.9502 -0.24,-0.475 -0.24,-0.9501 -0.24,-1.4251 0,-0.7126 0.24,-1.1877 0.48,-1.6627 0.47,-0.4751 0.95,-0.7126 1.42,-0.7126 0.48,0 0.72,0 1.19,0.2375 0.48,0.2375 0.71,0.2375 1.19,0.4751 0.71,0.475 1.66,0.7125 2.37,0.9501 0.72,0.2375 1.67,0.2375 2.85,0.2375 0.95,0 1.9,-0.2375 2.38,-0.4751 0.47,-0.2375 0.95,-0.7126 0.95,-1.1876 0,-0.4751 -0.24,-0.7126 -0.48,-0.9501 -0.23,-0.2376 -0.71,-0.4751 -1.42,-0.7126 -0.71,-0.2375 -1.66,-0.4751 -3.09,-0.7126 -2.61,-0.4751 -4.51,-1.1877 -5.7,-2.1378 -1.19,-0.9501 -1.66,-2.3753 -1.66,-4.038 0,-2.6128 1.66,-4.7506 4.04,-5.7007 1.42,-0.7126 2.85,-0.9501 4.27,-0.9501 1.9,-0.2375 3.8,0 5.46,0.7126 1.67,0.475 3.57,1.6627 3.57,3.5629 0,0.7126 -0.24,1.1877 -0.48,1.6627 -0.47,0.4751 -0.95,0.7126 -1.42,0.7126 -1.43,0 -2.62,-0.9501 -4.04,-1.4252 -1.43,-0.475 -3.09,-0.475 -4.51,0 -0.48,0.2376 -0.95,0.4751 -0.95,0.9502 -0.24,0.475 0,0.9501 0.47,1.1876 0.48,0.4751 1.19,0.4751 1.9,0.7126 0.71,0.2375 1.43,0.2375 2.14,0.4751 1.9,0.475 3.56,0.9501 4.51,1.4251 1.19,0.4751 1.9,1.1877 2.38,2.1378 0.47,0.7126 0.71,1.9002 0.71,3.0879 0,2.1378 -0.95,3.8005 -2.61,4.9881 -1.19,0.9501 -2.85,1.4252 -4.52,1.6627 -2.13,0.2376 -4.51,-0.2375 -6.65,-0.7126 z"
     fill="#756af8"
     id="path98" />
  <g
     transform="matrix(0.06130141,0,0,0.06130141,284.55033,-4.3140064)"
     id="g23">
    <linearGradient
       id="linearGradient54"
       gradientUnits="userSpaceOnUse"
       x1="-2901.9519"
       y1="923.573"
       x2="-2061.249"
       y2="1420.3311"
       gradientTransform="matrix(0.1234,0,0,-0.1234,1158.33,1550.273)">
      <stop
         offset="0"
         stop-color="#909ca9"
         id="stop50" />
      <stop
         offset="1"
         stop-color="#ededee"
         id="stop52" />
    </linearGradient>
    <path
       fill="url(#a)"
       d="m 1410.773,814.195 -286.9,93.683 -249.599,110.161 -69.829,18.435 c -17.784,16.916 -36.431,34.049 -56.599,51.397 -22.119,19.082 -42.72,36.433 -58.553,49.008 -17.564,13.88 -43.587,39.902 -56.814,56.38 -19.735,24.721 -35.348,50.96 -42.071,71.13 -11.928,36.433 -6.07,73.297 16.916,107.346 29.492,43.369 88.261,87.606 156.785,117.749 34.916,15.4 93.683,35.132 137.92,46.19 73.512,18.651 215.771,38.819 294.054,41.857 15.828,0.65 37.082,0.65 37.947,0 1.737,-1.088 13.881,-24.289 27.979,-53.129 48.142,-98.238 82.838,-190.402 101.703,-269.119 11.276,-47.706 20.166,-111.246 26.019,-186.492 1.521,-21.036 2.169,-91.514 0.868,-115.37 -1.953,-39.033 -5.423,-70.692 -10.84,-101.703 -0.868,-4.555 -1.088,-8.676 -0.652,-8.892 0.865,-0.65 3.467,-1.517 38.815,-11.712 l -7.153,-16.912 v -0.005 0 z m -65.49,38.386 c 2.602,0 9.539,66.573 11.273,108.646 0.436,8.89 0.216,14.745 -0.216,14.745 -1.733,0 -36.649,-20.599 -61.583,-36.212 -21.687,-13.663 -62.888,-40.988 -69.393,-46.192 -2.173,-1.517 -1.957,-1.733 15.828,-7.807 30.14,-10.194 101.706,-33.18 104.091,-33.18 z m -146.161,48.143 c 1.953,0 6.937,2.816 18.865,10.191 44.671,27.974 105.393,61.805 131.415,73.083 8.022,3.469 8.887,2.166 -9.542,14.746 -39.468,26.889 -88.697,53.344 -148.983,80.018 -10.624,4.771 -19.514,8.456 -19.73,8.456 -0.432,0 0.865,-5.418 2.598,-11.925 14.53,-54.001 22.772,-108.647 23.208,-152.452 0.216,-21.687 0.216,-21.687 2.169,-22.334 -0.436,0.217 -0.22,0.217 0,0.217 z m -30.142,11.492 c 1.297,1.299 0.432,49.877 -1.304,63.104 -3.903,31.662 -9.975,61.153 -19.947,94.335 -2.386,8.018 -4.558,14.745 -4.987,15.177 -0.872,1.083 -30.581,-27.975 -40.339,-39.251 -16.916,-19.518 -30.141,-39.035 -39.9,-58.117 -4.988,-9.759 -12.793,-28.84 -12.144,-29.492 3.469,-2.385 117.753,-46.622 118.621,-45.756 z m -141.826,55.731 c 0.216,0 0.432,0 0.652,0.216 0.432,0.434 1.953,3.905 3.254,7.807 6.937,18.867 22.548,46.624 35.997,64.407 14.746,19.518 34.048,40.334 50.091,53.996 5.207,4.337 9.975,8.456 10.624,9.108 1.304,1.302 1.737,1.083 -33.612,14.53 -40.981,15.613 -85.656,31.226 -136.835,47.706 a 6825.474,6825.474 0 0 0 -36.643,11.928 c -1.955,0.652 -1.303,-0.434 4.335,-9.323 25.371,-39.686 63.97,-117.536 85.657,-172.618 3.687,-9.542 7.373,-19.082 8.025,-21.251 0.868,-3.038 1.95,-4.121 4.768,-5.64 1.518,-0.43 3.038,-0.866 3.687,-0.866 z m -43.367,17.999 c 0.649,0.436 -10.411,23.637 -21.254,44.889 -21.036,40.985 -44.022,81.323 -74.815,130.331 -5.204,8.456 -10.19,16.265 -10.842,17.132 -1.083,1.519 -1.519,1.083 -4.988,-5.638 -7.373,-14.53 -13.447,-33.181 -16.699,-50.313 -3.254,-16.916 -2.602,-46.406 1.086,-64.621 2.816,-13.444 2.602,-13.227 9.107,-16.481 27.757,-14.095 117.537,-56.166 118.405,-55.299 z m 374.073,15.182 v 9.107 c 0,48.359 -5.204,114.716 -12.797,163.077 -1.301,8.456 -2.389,15.393 -2.602,15.613 0,0 -6.288,-1.733 -13.661,-3.905 -32.527,-10.193 -67.875,-25.156 -99.754,-42.718 -21.038,-11.494 -51.612,-30.363 -50.743,-31.231 0.213,-0.215 9.323,-4.986 19.947,-10.625 42.509,-22.118 83.274,-45.972 118.622,-69.609 13.229,-8.892 33.176,-23.202 37.518,-27.107 z m -537.802,64.185 c 0.867,0 0.65,1.735 -0.651,9.542 -0.868,5.64 -1.951,16.049 -2.382,23.202 -1.739,31.662 3.469,55.084 19.082,87.177 4.337,8.892 7.809,16.265 7.589,16.48 -1.519,1.303 -145.074,43.375 -190.183,55.734 -13.444,3.685 -25.152,6.939 -26.024,7.153 -1.515,0.436 -1.733,0.22 -1.083,-3.47 4.987,-31.875 29.276,-73.512 63.104,-108.644 22.554,-23.419 40.554,-37.08 71.347,-54.648 22.119,-12.575 56.165,-31.439 58.767,-32.309 0.002,-0.217 0.218,-0.217 0.434,-0.217 z m 338.295,60.503 c 0.216,-0.216 5.42,2.605 11.708,6.29 46.408,26.891 111.03,51.83 166.108,64.623 l 4.991,1.086 -6.941,3.899 c -28.84,16.049 -123.606,55.515 -220.538,91.732 -14.098,5.202 -27.975,10.409 -30.581,11.492 -2.602,1.083 -4.988,1.735 -4.988,1.519 0,-0.22 3.906,-7.809 8.89,-17.132 27.107,-50.744 54.433,-112.547 68.311,-155.485 1.739,-4.12 2.82,-7.805 3.04,-8.024 z m -34.48,11.278 c 0.22,0.221 -1.517,4.771 -3.687,9.975 -18.865,45.756 -43.59,95.636 -75.249,151.583 -8.022,14.314 -14.746,25.808 -14.966,25.808 -0.213,0 -6.721,-3.906 -14.527,-8.676 -45.976,-28.192 -86.743,-62.888 -113.414,-96.501 l -3.905,-4.771 19.732,-5.422 c 70.696,-19.298 130.762,-40.116 190.4,-65.704 8.459,-3.471 15.4,-6.292 15.616,-6.292 z m 214.253,74.815 c 0,0 0.217,0.217 0,0 0.216,4.988 -10.844,49.661 -19.953,81.969 -7.589,27.107 -14.098,48.361 -26.022,85.874 -5.204,16.485 -9.755,30.143 -9.975,30.143 -0.216,0 -1.517,-0.216 -2.818,-0.647 -64.405,-11.714 -122.089,-27.977 -176.303,-49.661 -15.182,-6.074 -36.866,-15.833 -38.167,-16.916 -0.432,-0.438 12.58,-6.506 29.06,-13.663 98.669,-43.154 201.024,-92.164 236.153,-113.196 4.119,-2.603 7.373,-3.903 8.025,-3.903 z m -494.646,16.916 c 0.434,0.432 -27.107,40.118 -65.709,94.114 -13.444,18.867 -29.057,40.985 -34.911,49.225 -5.856,8.241 -14.746,21.253 -19.734,29.06 l -9.112,14.096 -9.759,-8.24 c -11.494,-9.544 -31.442,-29.927 -40.333,-41.204 -18.651,-23.201 -31.226,-47.706 -36.214,-70.04 -2.386,-10.411 -2.386,-15.618 -0.22,-16.265 3.252,-0.867 61.153,-14.53 115.37,-27.11 30.143,-6.937 65.054,-15.177 77.632,-18.213 12.579,-3.041 22.774,-5.423 22.99,-5.423 z m 27.756,10.626 6.937,7.806 c 31.231,34.914 63.108,60.724 101.708,83.272 6.941,3.906 12.144,7.373 11.708,7.594 -1.514,1.083 -134.016,48.136 -195.385,69.389 -34.478,12.143 -62.888,21.901 -63.102,21.901 -0.216,0 -2.169,-1.299 -4.341,-2.818 l -3.901,-2.82 6.288,-9.106 c 20.383,-29.493 45.976,-61.803 101.707,-129.028 z m 173.053,123.822 c 0.213,-0.215 9.755,3.252 21.464,7.594 28.195,10.624 50.527,17.345 80.456,24.936 36.866,9.326 90.211,18.434 121.657,21.035 4.771,0.432 7.373,0.868 6.505,1.519 -1.521,0.868 -33.395,11.494 -56.816,18.867 -37.302,11.708 -151.149,45.32 -243.962,71.995 -17.132,4.987 -31.879,9.108 -32.746,9.323 -2.166,0.436 -9.325,-1.519 -9.325,-2.386 0,-0.431 5.204,-7.153 11.494,-14.527 31.225,-37.3 62.238,-78.935 88.044,-118.403 7.154,-10.846 13.229,-19.736 13.229,-19.953 z m -38.17,1.087 c 0.216,0.216 -15.179,24.936 -42.066,67.439 -11.496,17.999 -24.291,38.383 -28.846,45.54 -4.337,6.939 -10.842,17.784 -14.527,23.854 l -6.29,11.061 -3.252,-0.868 c -7.809,-2.169 -62.672,-21.471 -77.202,-27.325 -18,-7.157 -36.649,-15.829 -50.529,-23.202 -17.346,-9.326 -39.03,-23.206 -37.297,-23.637 0.433,-0.216 30.143,-8.243 65.922,-17.999 94.984,-25.809 147.678,-40.77 182.161,-51.612 6.29,-1.952 11.71,-3.471 11.926,-3.251 z m 269.985,63.318 h 0.216 c 0.868,2.171 -34.26,99.755 -47.06,130.547 -2.815,6.939 -3.896,8.677 -5.417,8.456 -3.687,-0.213 -54.646,-7.37 -85.66,-11.925 -53.994,-8.24 -144.641,-24.073 -167.409,-29.275 l -5.204,-1.083 32.307,-7.378 c 69.396,-15.613 102.791,-24.069 136.619,-34.478 42.722,-13.011 85.011,-29.276 127.729,-49.225 6.722,-3.037 12.361,-5.422 13.879,-5.639 z"
       id="path7"
       style="fill:url(#a-1)" />
    <linearGradient
       id="linearGradient61"
       gradientUnits="userSpaceOnUse"
       x1="-2882.7"
       y1="10288.81"
       x2="-2206.249"
       y2="10288.81"
       gradientTransform="matrix(0.1234,0,0,-0.1234,1158.33,1550.273)">
      <stop
         offset="0"
         stop-color="#939fab"
         id="stop57" />
      <stop
         offset="1"
         stop-color="#dcdee1"
         id="stop59" />
    </linearGradient>
    <path
       fill="url(#b)"
       d="m 1114.983,145.414 c -4.771,-0.647 -81.757,27.11 -131.415,47.275 -67.01,27.327 -119.052,53.351 -151.148,75.899 -11.925,8.461 -26.891,23.422 -29.273,29.276 -0.867,2.169 -1.303,4.771 -1.303,7.373 l 29.06,27.541 69.175,22.119 164.594,29.493 188.228,32.312 1.953,-16.264 c -0.649,0 -1.085,-0.216 -1.73,-0.216 l -24.728,-3.905 -4.984,-8.89 c -25.59,-45.107 -53.781,-101.056 -70.261,-138.789 -12.793,-29.276 -24.938,-63.102 -31.662,-87.391 -3.687,-14.746 -4.119,-15.613 -6.501,-15.829 v -0.005 h -0.01 z m -3.474,11.063 h 0.223 c 0.213,0.214 1.081,6.29 1.95,13.442 3.683,30.364 10.411,59.635 21.035,91.297 8.022,23.855 8.022,22.555 -1.301,19.734 -22.119,-6.07 -121.221,-23.202 -193,-33.177 -11.494,-1.519 -21.253,-3.036 -21.253,-3.252 -0.867,-0.867 51.827,-28.41 75.031,-39.25 29.709,-13.665 111.246,-47.711 117.315,-48.794 z m -209.047,97.15 8.461,2.816 c 45.97,15.616 161.551,37.736 225.31,42.94 7.154,0.651 13.229,1.303 13.442,1.303 0.216,0.216 -5.852,3.469 -13.661,7.154 -30.79,15.397 -64.621,34.264 -88.042,48.794 -6.937,4.335 -13.229,7.807 -14.094,7.807 -0.868,0 -5.42,-0.868 -10.191,-1.519 l -8.674,-1.303 -21.683,-21.253 c -38.167,-37.08 -68.094,-65.704 -79.588,-76.549 z m -8.671,6.721 30.576,38.168 c 16.696,21.035 33.611,41.635 37.301,46.187 3.683,4.557 6.721,8.245 6.505,8.461 -0.868,0.65 -44.236,-7.809 -67.226,-13.011 -23.637,-5.423 -33.395,-8.025 -47.924,-12.577 l -11.928,-3.905 v -3.038 c 0.216,-14.53 18.651,-36.214 49.877,-58.331 z m 259.791,52.046 c 0.869,0 1.95,1.951 4.552,7.806 7.373,16.263 30.364,60.07 35.997,68.526 1.74,2.822 4.771,3.038 -25.802,-1.95 -73.512,-11.93 -97.152,-15.829 -97.152,-16.263 0,-0.216 2.169,-1.735 4.988,-3.254 22.771,-12.575 45.756,-28.624 66.142,-45.756 4.988,-4.121 9.542,-8.024 10.407,-8.676 0.216,-0.433 0.652,-0.649 0.868,-0.433 z"
       id="path14"
       style="fill:url(#b-9)" />
    <radialGradient
       id="radialGradient68"
       cx="-14217.448"
       cy="7277.7051"
       r="898.12"
       gradientTransform="matrix(-0.1185,-0.0178,-0.036,0.237,-198.955,-1314.415)"
       gradientUnits="userSpaceOnUse">
      <stop
         offset="0"
         stop-color="#ee352c"
         id="stop64" />
      <stop
         offset="1"
         stop-color="#a91d22"
         id="stop66" />
    </radialGradient>
    <path
       fill="url(#c)"
       d="m 804.66,294.828 c 0,0 -4.768,7.593 -0.215,18.87 2.822,6.937 11.061,15.393 20.384,24.069 0,0 96.5,94.114 108.211,107.561 53.344,61.585 76.549,122.305 78.718,206.012 1.301,53.78 -8.894,101.054 -34.264,155.919 -45.106,98.453 -140.307,207.098 -287.117,327.67 l 21.472,-7.157 c 13.878,-10.411 32.745,-21.467 76.982,-45.756 102.137,-55.952 217.071,-107.346 358.028,-160.258 202.971,-76.335 536.715,-165.681 726.676,-194.736 l 19.737,-3.038 -3.038,-4.771 c -17.345,-26.891 -29.276,-43.587 -43.59,-61.369 -41.633,-51.612 -92.157,-93.463 -153.964,-128.161 -85.007,-47.489 -194.956,-84.571 -334.173,-112.112 -26.239,-5.207 -83.923,-15.181 -130.763,-22.337 -99.321,-15.393 -163.51,-26.021 -234.203,-38.165 -25.37,-4.339 -63.323,-10.843 -88.478,-16.263 -13.011,-2.822 -37.947,-8.676 -57.464,-15.398 -15.613,-6.075 -38.168,-12.147 -42.939,-30.58 z m 55.952,54.216 c 0.214,-0.214 3.683,1.083 8.24,2.602 8.24,2.816 18.865,6.07 31.446,9.542 a 1599.47,1599.47 0 0 0 28.624,7.589 c 13.011,3.251 23.852,6.288 24.068,6.288 1.521,1.519 23.424,71.558 30.797,98.449 2.815,10.195 4.988,18.867 4.771,18.867 -0.223,0.22 -2.605,-3.469 -5.423,-8.456 -25.373,-44.673 -65.491,-89.995 -111.899,-126.428 -6.069,-4.333 -10.624,-8.237 -10.624,-8.453 z m 106.692,29.492 c 1.085,0 5.856,0.651 11.708,1.951 36.866,8.24 103.008,20.818 145.293,27.975 7.157,1.083 12.797,2.387 12.797,2.818 0,0.436 -2.605,1.951 -5.859,3.688 -7.153,3.685 -35.997,20.815 -45.536,27.322 -24.073,16.047 -45.756,33.395 -61.371,49.008 -6.288,6.29 -11.712,11.494 -11.712,11.494 0,0 -1.297,-3.685 -2.386,-8.242 -7.802,-30.143 -24.069,-74.816 -38.815,-106.258 -2.386,-4.986 -4.339,-9.541 -4.339,-9.973 0,0.433 0,0.217 0.22,0.217 z m 187.795,35.781 c 1.301,0.432 3.47,7.806 7.806,24.069 8.025,31.446 11.712,66.576 10.411,99.321 -0.436,9.108 -0.868,17.564 -1.304,18.651 l -0.649,2.166 -11.276,-3.685 c -23.204,-7.373 -60.935,-18.435 -93.245,-27.541 -18.436,-4.988 -33.395,-9.542 -33.395,-9.975 0,-1.303 26.891,-28.192 38.383,-38.383 21.898,-19.303 81.316,-65.275 83.269,-64.623 z m 14.963,2.166 c 0.652,-0.647 89.779,14.746 130.331,22.554 30.145,5.854 73.948,14.963 76.549,16.049 1.301,0.432 -3.254,3.034 -17.784,9.539 -57.248,25.808 -99.754,49.008 -142.036,77.202 -11.06,7.373 -20.386,13.444 -20.602,13.444 -0.216,0 -0.433,-6.287 -0.433,-13.878 0,-41.201 -8.241,-82.838 -23.424,-117.968 -1.517,-3.47 -2.818,-6.722 -2.601,-6.942 z m 230.516,45.542 c 0.652,0.65 -2.169,18.217 -4.771,28.624 -7.806,32.312 -28.84,80.24 -54.643,125.343 -4.558,8.024 -8.677,14.53 -9.114,14.746 -0.429,0.216 -6.285,-3.038 -13.009,-6.941 -25.154,-14.746 -53.778,-28.624 -85.007,-41.637 -8.671,-3.685 -16.263,-6.723 -16.48,-7.153 -1.521,-1.303 68.308,-47.493 105.174,-69.612 29.276,-17.781 76.982,-44.239 77.85,-43.37 z m 16.48,2.601 c 1.953,0 41.421,10.844 62.019,16.916 50.963,15.181 109.512,36.648 147.679,53.996 l 15.828,7.159 -11.056,2.6 c -93.245,21.467 -173.049,46.192 -250.034,77.418 -6.289,2.602 -11.928,4.771 -12.357,4.771 -0.436,0 1.733,-4.987 4.552,-11.061 23.204,-49.225 38.167,-100.62 41.85,-144.427 0.221,-4.121 0.867,-7.372 1.519,-7.372 z m -392.938,90.213 c 0.649,-0.652 30.793,6.506 47.057,11.056 24.721,6.942 77.198,24.505 77.198,25.808 0,0.216 -5.853,5.204 -12.79,11.278 -28.408,23.637 -55.734,48.572 -88.481,80.234 -9.759,9.328 -17.997,16.917 -18.429,16.917 -0.436,0 -0.649,-1.304 -0.436,-3.038 4.987,-36.433 3.906,-83.272 -3.034,-130.763 -0.653,-6.074 -1.302,-11.276 -1.085,-11.492 z m 633.433,0.652 c 0.429,0.431 -13.881,22.984 -22.988,35.777 -13.009,18.649 -32.098,43.375 -75.252,97.588 -22.765,28.622 -48.358,60.936 -56.812,71.778 -8.678,10.842 -15.831,19.948 -16.051,19.948 -0.216,0 -3.031,-3.901 -6.069,-8.671 -24.289,-36.433 -53.349,-68.311 -87.829,-96.935 -6.505,-5.423 -13.658,-11.278 -16.044,-13.013 -2.386,-1.734 -4.339,-3.469 -4.339,-3.685 0,-0.649 36.862,-16.483 64.841,-27.757 49.01,-19.952 115.794,-43.805 165.892,-59.203 26.24,-8.239 54.215,-16.263 54.651,-15.827 z m 16.696,4.334 c 0.865,-0.215 6.072,2.387 12.361,6.07 52.697,30.143 104.305,68.962 145.077,108.864 11.492,11.278 39.9,40.77 39.464,40.986 0,0 -9.975,0.867 -21.683,1.733 -91.296,6.942 -208.178,26.239 -320.511,53.345 -7.589,1.733 -14.31,3.252 -14.746,3.252 -0.429,0 8.025,-8.456 18.653,-18.647 65.922,-63.538 96.067,-103.656 131.628,-175.22 4.986,-10.623 9.325,-19.731 9.757,-20.383 -0.216,0 -0.216,0 0,0 z m -482.936,49.446 c 3.038,0.647 31.229,13.88 52.48,24.503 19.517,9.755 48.794,25.372 50.311,26.671 0.216,0.216 -10.195,5.638 -22.984,11.928 -40.772,20.384 -75.684,39.682 -112.118,61.802 -10.408,6.29 -19.082,11.497 -19.298,11.497 -0.868,0 -0.652,-0.872 5.204,-11.497 19.518,-35.561 35.129,-78.065 44.023,-119.486 0.864,-3.252 1.733,-5.418 2.382,-5.418 z m -28.192,5.202 c 0.652,0.652 -6.721,27.323 -11.273,41.853 -8.894,27.541 -23.856,62.02 -38.383,88.043 -3.474,6.069 -8.677,14.961 -11.496,19.948 l -5.42,8.674 -12.144,-11.707 c -14.094,-13.663 -25.59,-22.12 -40.333,-29.712 -5.859,-3.033 -10.411,-5.638 -10.411,-6.069 0,-1.735 37.082,-35.347 65.49,-59.635 20.383,-17.566 63.321,-52.045 63.97,-51.395 z m 172.404,70.913 10.627,6.937 c 24.282,15.833 52.906,36.866 74.813,55.298 12.357,10.19 36.21,31.662 40.985,36.866 l 2.598,2.822 -17.561,4.986 c -99.321,27.538 -176.087,52.043 -265.649,85.007 -9.975,3.685 -18.433,6.721 -19.085,6.721 -1.297,0 -2.385,1.083 19.954,-19.519 57.251,-52.691 107.992,-110.812 145.726,-167.411 z m -45.324,11.276 c 0.432,0.432 -29.276,42.284 -47.06,65.922 -21.251,28.192 -58.985,75.465 -85.007,106.256 -10.84,12.797 -20.163,23.422 -20.599,23.64 -0.652,0.216 -0.868,-3.036 -0.868,-8.024 0,-26.242 -6.721,-54.216 -18.433,-78.068 -4.988,-9.975 -5.856,-12.361 -4.768,-13.444 4.119,-3.688 67.223,-39.686 107.123,-61.153 26.89,-14.312 68.956,-35.563 69.612,-35.129 z m -274.107,67.225 c 0.652,0 5.64,2.6 11.279,5.638 13.878,7.589 26.239,16.046 37.298,25.156 0.432,0.432 -5.204,4.988 -12.577,10.406 -20.602,14.746 -51.828,38.385 -70.041,52.915 -19.088,15.18 -19.734,15.613 -17.568,12.361 14.314,-21.903 21.467,-34.264 29.06,-50.093 6.721,-14.094 13.442,-30.793 18.213,-45.323 1.734,-6.289 3.904,-11.06 4.336,-11.06 z m 73.083,57.248 c 1.081,-0.214 2.386,1.735 8.238,10.411 12.361,18.429 21.903,43.154 24.292,63.104 l 0.429,4.339 -29.705,11.494 c -53.133,20.599 -102.139,40.985 -135.322,56.162 -9.322,4.339 -25.587,12.144 -36.211,17.352 -10.627,5.418 -19.301,9.539 -19.301,9.323 0,-0.216 6.721,-5.204 14.961,-11.278 64.844,-47.055 121.007,-98.669 163.076,-150.279 4.555,-5.423 8.677,-10.411 9.107,-10.627 z m -33.612,8.242 c 0.868,0.867 -23.853,28.84 -40.768,45.971 -41.853,42.723 -83.273,76.12 -134.669,108.649 -6.505,4.119 -12.359,7.804 -13.011,8.24 -1.519,0.867 0.432,-1.303 22.986,-25.808 14.314,-15.397 25.155,-28.408 37.516,-44.453 8.24,-10.624 9.759,-12.143 21.688,-20.604 31.878,-22.987 105.39,-72.864 106.258,-71.995 z"
       id="path21"
       style="fill:url(#c-8)" />
  </g>
  <path
     fill="#231f1f"
     d="m 101.82178,34.063566 c -0.37789,0 -0.75595,0.03603 -1.13052,0.03603 -7.633356,0.406781 -12.781702,3.766123 -15.791877,10.326413 -2.574505,5.933183 -2.293412,13.688743 0.02885,19.658288 2.700524,5.832899 7.064199,8.911314 14.347894,10.074042 1.541113,0.25237 2.574503,1.098473 5.559273,4.583503 l 3.67265,4.30274 h 6.6609 l -4.42909,-4.464955 c -2.44832,-2.448155 -4.42859,-4.57985 -4.42859,-4.767135 0,-0.187119 0.93659,-0.597552 2.07026,-0.943067 3.7374,-1.131015 6.84105,-4.018326 9.0121,-8.443434 1.75712,-3.553434 2.00933,-4.651908 2.2612,-9.07303 0.65898,-13.159763 -6.27936,-21.387188 -17.83342,-21.293213 z m 5.83987,34.413627 c -3.24046,1.569508 -7.945829,1.882812 -11.01727,0.755947 -3.17571,-1.166381 -6.250472,-4.464457 -7.63336,-8.198203 -1.537298,-4.082914 -1.317803,-11.614994 0.439323,-15.007044 2.826377,-5.400717 6.563942,-7.8849 12.025757,-7.8849 8.10107,0 12.70965,4.961725 13.31102,14.286794 0.47535,7.784449 -2.13153,13.624322 -7.12198,16.044085 z M 222.72657,45.304321 c -2.794,0 -4.93267,1.13085 -6.37317,3.359011 l -1.13052,1.764431 v -4.587155 h -4.83538 v 27.507988 h 4.83222 v -8.792435 c 0,-8.039974 0.10025,-8.97972 1.22383,-11.179821 1.54842,-3.017149 4.21242,-4.521738 6.78726,-3.801654 l 1.72807,0.504076 v -4.767135 h -2.23231 z m -28.40788,-0.252203 c -0.94722,0 -1.95189,0.126185 -2.95223,0.346012 -6.47047,1.691875 -10.11771,7.884733 -9.89457,14.257738 0,5.336129 1.03671,8.003779 3.61155,10.801598 5.27486,4.327646 10.04532,4.67316 16.48291,2.351191 1.09831,-0.468046 2.29358,-1.008151 2.29358,-1.008151 V 67.47286 l -2.29358,1.188131 c -5.20994,2.268175 -9.13446,2.268175 -12.27796,-0.40346 -2.00501,-2.04154 -2.88748,-4.48986 -3.29409,-7.283528 h 19.49656 v -3.709008 c 0,-7.560969 -4.55095,-12.335244 -11.17616,-12.212877 z m -7.88524,12.061787 c 0,0 0.72025,-4.716495 3.39172,-6.567263 1.28576,-0.907535 2.76163,-1.346526 4.20528,-1.346526 1.44764,0 2.8913,0.467881 4.08308,1.379069 2.44865,1.882978 2.85892,6.499023 2.85892,6.499023 h -14.53883 v 0.0357 z M 69.859962,52.152678 c -5.242154,-3.175876 -7.568108,-5.465967 -7.283694,-8.166325 0.813561,-7.47098 10.045485,-6.437591 15.157968,-3.611048 l 0.03632,-5.026146 c 0,0 -2.826543,-1.224161 -6.877246,-1.289079 -6.214443,-0.09364 -10.232604,1.944078 -12.115416,6.09191 -2.765443,6.120801 -0.316791,10.736514 8.533424,15.885524 4.968532,2.890964 7.164649,5.400716 7.164649,8.136938 0,5.65292 -6.815648,7.626054 -13.847305,4.079426 -1.447142,-0.720084 -2.671468,-1.321455 -2.736221,-1.321455 -0.252204,1.602383 -0.122242,5.436745 -0.122242,5.436745 0,0 2.16042,0.907536 5.40055,1.53348 8.03599,1.602217 15.348906,-2.167393 16.040101,-8.288194 0.601371,-5.74623 -1.47653,-8.760058 -9.350638,-13.465927 z M 265.52201,44.987531 c -0.94339,0 -1.94441,0.129505 -2.98859,0.349167 -6.46266,1.692207 -10.10309,7.885231 -9.85471,14.258236 0,5.328824 1.03355,7.971402 3.60773,10.765237 5.27503,4.331631 10.04565,4.680632 16.51578,2.35501 1.09449,-0.467881 2.28627,-1.000514 2.28627,-1.000514 v -4.334951 l -2.28975,1.194938 c -5.22057,2.261201 -9.14542,2.261201 -12.27763,-0.410267 -2.01647,-2.037887 -2.8913,-4.457484 -3.29825,-7.284027 h 19.46436 v -3.708509 c 0,-7.524775 -4.55129,-12.302868 -11.17616,-12.176683 z m -7.88523,12.061621 c 0,0 0.72739,-4.709521 3.39521,-6.596318 1.28194,-0.91069 2.75797,-1.350179 4.20179,-1.350179 1.44017,0 2.8913,0.468046 4.08341,1.382555 2.44832,1.883145 2.85892,6.5314 2.85892,6.5314 h -14.53534 z m -88.6298,-4.835374 c -5.24216,-3.168405 -7.56114,-5.465801 -7.28021,-8.166325 0.81356,-7.474798 10.04565,-6.437591 15.15814,-3.611048 l 0.0361,-5.026146 c 0,0 -2.82655,-1.224326 -6.87725,-1.282106 -6.21444,-0.09348 -10.2326,1.944411 -12.1189,6.092077 -2.76163,6.120635 -0.28093,10.736679 8.54023,15.885524 4.96172,2.887809 7.15784,5.364853 7.15784,8.101074 0,5.65292 -6.81216,7.658431 -13.84398,4.079261 -1.44017,-0.720085 -2.66417,-1.314316 -2.73623,-1.314316 -0.2522,1.602051 -0.12224,5.436911 -0.12224,5.436911 0,0 2.13485,0.874993 5.36452,1.533645 8.04346,1.60587 15.3597,-2.160419 16.04758,-8.281219 0.59771,-5.717673 -1.4762,-8.731169 -9.32557,-13.440691 v -0.0066 z m 124.92657,-6.974209 c -2.794,0 -4.95757,1.133838 -6.37283,3.362829 l -1.13085,1.756959 v -4.579683 h -4.83538 v 27.500517 h 4.83189 v -8.792103 c 0,-8.036488 0.0969,-8.979886 1.22449,-11.176169 1.54809,-3.013496 4.21209,-4.521904 6.78659,-3.798499 l 1.72807,0.50391 v -4.777595 h -2.23198 z M 130.55377,52.055217 V 34.534934 h -4.87489 v 38.806523 h 20.50141 V 68.758286 H 130.55393 V 52.055217 Z m 112.73877,5.461816 -4.01816,10.455918 -3.86358,-10.513531 -3.92452,-11.651023 h -4.9901 c 3.23347,9.167005 6.75055,18.492074 10.29734,27.53306 1.53746,0.03586 3.07841,0 4.61555,0 l 5.42628,-13.624323 5.52674,-13.90525 h -4.77046 c 0,0 -2.10662,5.523248 -4.30257,11.708802 z M 141.78722,23.960302 c 0.785,0 1.44017,-0.251706 1.98028,-0.79181 0.53263,-0.533132 0.81356,-1.159574 0.81356,-1.944411 0,-0.785003 -0.28093,-1.440335 -0.81356,-1.94441 -0.54011,-0.50391 -1.16307,-0.75628 -1.94442,-0.75628 -0.79181,0 -1.44731,0.25237 -1.98027,0.785003 -0.53994,0.533132 -0.78484,1.188463 -0.78484,1.944577 0,0.792142 0.2522,1.447142 0.78484,1.94441 0.50424,0.503744 1.15957,0.755948 1.94441,0.755948 z m -1.72807,-4.464457 c 0.46788,-0.46788 1.03687,-0.684221 1.7641,-0.684221 0.68422,0 1.25321,0.216341 1.72857,0.684221 0.46805,0.468047 0.72009,1.036876 0.72009,1.728236 0,0.691195 -0.25204,1.289079 -0.72009,1.756959 -0.47519,0.467715 -1.04435,0.691195 -1.72857,0.691195 -0.69485,0 -1.26019,-0.216009 -1.72807,-0.691195 -0.46805,-0.46788 -0.72009,-1.065764 -0.72009,-1.756959 0,-0.69136 0.21601,-1.260023 0.68406,-1.728236 z m 1.16273,1.98044 h 0.31679 c 0.22348,0 0.44297,0.215843 0.63009,0.626442 l 0.37839,0.849424 h 0.59391 l -0.46789,-0.943565 c -0.19073,-0.377725 -0.37789,-0.597386 -0.59772,-0.658984 0.27728,-0.06475 0.49677,-0.15823 0.65533,-0.345681 0.15815,-0.161716 0.21584,-0.381543 0.21584,-0.630094 0,-0.287901 -0.0901,-0.503743 -0.28059,-0.662305 -0.21618,-0.179979 -0.56186,-0.277109 -1.00848,-0.277109 h -1.00052 v 3.517738 h 0.50391 v -1.476198 z m 0,-1.634759 h 0.43948 c 0.3168,0 0.54011,0.06475 0.66248,0.158229 0.11892,0.09364 0.15129,0.216341 0.15129,0.439323 0,0.40678 -0.25237,0.597884 -0.72008,0.597884 h -0.53994 v -1.195436 z m -80.528923,1.321289 c 0,-1.22416 -0.0359,-2.13485 -0.06475,-2.671468 h 0.02885 c 0.12577,0.633249 0.280761,1.10528 0.40678,1.418418 l 4.680466,10.455918 h 0.785003 l 4.680466,-10.549394 c 0.126392,-0.287735 0.25237,-0.720085 0.407112,-1.321455 h 0.0359 c -0.09339,1.044346 -0.12577,1.951549 -0.12577,2.67512 v 9.228271 h 1.601885 V 16.680261 h -2.008997 l -4.302409,9.541242 c -0.158562,0.377891 -0.378223,0.943565 -0.658985,1.692373 h -0.06517 c -0.09339,-0.370917 -0.313138,-0.936259 -0.626275,-1.62762 l -4.205612,-9.638704 h -2.13485 v 13.717799 h 1.54095 v -9.195729 z m 15.946624,0.02557 h 1.382888 v 8.543718 h -1.382888 z m 0.691361,-3.132707 c 0.288233,0 0.532965,-0.09746 0.720084,-0.287901 0.190938,-0.187451 0.317123,-0.432184 0.317123,-0.720085 0,-0.280927 -0.09381,-0.533131 -0.313304,-0.720084 -0.194466,-0.190938 -0.442976,-0.288399 -0.72739,-0.288399 -0.280595,0 -0.532633,0.09746 -0.72025,0.288399 -0.190315,0.186953 -0.316625,0.439157 -0.316625,0.720084 0,0.313304 0.09734,0.532634 0.316625,0.720085 0.216507,0.190439 0.439489,0.287901 0.72025,0.287901 z M 87.880668,29.919554 V 28.4143 c -0.756279,0.565342 -1.570006,0.846435 -2.412457,0.846435 -1.007819,0 -1.825531,-0.345514 -2.423249,-1.007819 -0.593899,-0.655332 -0.91069,-1.566686 -0.91069,-2.70069 0,-1.188131 0.316791,-2.131862 0.971956,-2.851946 0.630095,-0.691195 1.44764,-1.036875 2.448652,-1.036875 0.817214,0 1.601719,0.25237 2.325954,0.756611 V 20.8178 c -0.658818,-0.34568 -1.411279,-0.504242 -2.261201,-0.504242 -1.570006,0 -2.793834,0.504242 -3.708343,1.476696 -0.907536,0.971956 -1.375582,2.293412 -1.375582,3.888489 0,1.418419 0.40678,2.610368 1.253216,3.52139 0.881966,0.935928 2.009329,1.41128 3.391718,1.41128 1.06892,-0.02955 1.943747,-0.252868 2.700026,-0.691859 z m 3.956729,-4.554779 c 0,-1.127031 0.252038,-2.037721 0.720084,-2.664661 0.439489,-0.56501 0.972123,-0.849424 1.602217,-0.849424 0.532966,0 0.910856,0.09713 1.187965,0.316791 v -1.63476 c -0.215843,-0.09348 -0.529147,-0.125853 -0.935927,-0.125853 -0.565342,0 -1.069085,0.190273 -1.512061,0.540104 -0.468046,0.370419 -0.842451,0.936093 -1.062112,1.656178 h -0.0359 v -2.005677 h -1.566187 v 9.793447 h 1.569674 v -5.026146 z m 9.012093,5.22057 c 1.47637,0 2.6645,-0.475352 3.54646,-1.418418 0.87832,-0.936591 1.31764,-2.196449 1.31764,-3.766621 0,-1.601719 -0.40296,-2.826045 -1.22399,-3.737399 -0.81356,-0.910358 -1.94441,-1.350179 -3.42078,-1.350179 -1.476361,0 -2.664492,0.439489 -3.546459,1.289079 -0.943232,0.936591 -1.440169,2.25788 -1.440169,3.95374 0,1.476198 0.403294,2.700524 1.253216,3.61138 0.878314,0.943066 2.041374,1.414766 3.514082,1.414766 z m -2.232308,-7.978709 c 0.597718,-0.630094 1.382888,-0.943564 2.354678,-0.943564 1.00848,0 1.76443,0.31347 2.32612,0.943564 0.56517,0.658985 0.84627,1.598897 0.84627,2.855267 0,1.195104 -0.25221,2.135016 -0.78517,2.765111 -0.53263,0.658984 -1.31764,1.007985 -2.35484,1.007985 -1.00799,0 -1.78934,-0.349333 -2.387058,-1.007985 -0.5939,-0.662471 -0.87848,-1.570007 -0.87848,-2.765111 -0.06102,-1.188131 0.252204,-2.160087 0.87848,-2.855267 z m 13.970168,7.125466 c 0.59755,-0.532634 0.91468,-1.187965 0.91468,-2.00933 0,-0.720084 -0.25237,-1.317636 -0.72025,-1.789336 -0.38188,-0.377724 -0.97196,-0.720084 -1.82537,-1.065764 -0.75645,-0.316459 -1.22433,-0.597719 -1.47653,-0.81738 -0.25187,-0.251872 -0.40678,-0.564844 -0.40678,-1.007985 0,-0.406781 0.15856,-0.720085 0.46838,-0.972123 0.31679,-0.251705 0.72008,-0.374072 1.26019,-0.374072 0.8461,0 1.56967,0.222982 2.23198,0.694848 v -1.570007 c -0.63358,-0.316458 -1.32129,-0.467714 -2.1063,-0.467714 -1.00798,0 -1.85774,0.277441 -2.48451,0.813395 -0.65899,0.533297 -0.97196,1.224492 -0.97196,2.037887 0,0.720084 0.21584,1.317968 0.62611,1.756959 0.34568,0.37457 0.93659,0.756446 1.75713,1.098141 0.78517,0.345847 1.31797,0.658819 1.60222,0.91069 0.28076,0.25237 0.40678,0.565342 0.40678,0.936592 0,0.914176 -0.62628,1.386208 -1.85061,1.386208 -0.9434,0 -1.78917,-0.309817 -2.54578,-0.936093 v 1.691708 c 0.68422,0.410932 1.50526,0.597885 2.41246,0.597885 1.16306,-0.0611 2.07375,-0.345515 2.70036,-0.910857 z m 7.47463,-9.419043 c -1.47653,0 -2.66449,0.439489 -3.54662,1.289079 -0.9361,0.936591 -1.44017,2.25788 -1.44017,3.95374 0,1.476198 0.40711,2.700524 1.25305,3.61138 0.88213,0.943066 2.04137,1.414766 3.51773,1.414766 1.51207,0 2.6645,-0.47502 3.54647,-1.418751 0.88213,-0.935927 1.32129,-2.196116 1.32129,-3.766123 0,-1.602217 -0.41044,-2.826211 -1.22433,-3.737233 -0.84926,-0.911022 -1.98027,-1.350345 -3.42044,-1.350345 z m 3.04588,5.14901 c 0,1.195105 -0.25204,2.135016 -0.78484,2.765111 -0.53297,0.658984 -1.31797,1.007985 -2.35501,1.007985 -1.00848,0 -1.7895,-0.349333 -2.38739,-1.007985 -0.5939,-0.662471 -0.87831,-1.570006 -0.87831,-2.765111 0,-1.260189 0.31347,-2.232145 0.94356,-2.887809 0.59374,-0.626442 1.37907,-0.943399 2.35468,-0.943399 0.97196,0 1.75347,0.316625 2.31848,0.943399 0.50425,0.691195 0.78517,1.631107 0.78517,2.887809 z m 4.24164,4.900127 h 1.56619 v -8.478965 h 2.29341 v -1.317968 h -2.29358 v -1.512227 c 0,-1.375084 0.53264,-2.066445 1.6346,-2.066445 0.37091,0 0.74897,0.09348 1.0299,0.252038 v -1.414766 c -0.28093,-0.126019 -0.65899,-0.154742 -1.13102,-0.154742 -0.84594,0 -1.53713,0.252204 -2.10264,0.784837 -0.65898,0.626442 -1.00798,1.440169 -1.00798,2.542295 v 1.605869 h -1.65668 v 1.317637 h 1.65668 v 8.447086 z m 6.43377,-2.671634 c 0,1.915687 0.84644,2.891296 2.57451,2.891296 0.62661,0 1.09814,-0.100616 1.4762,-0.32393 v -1.346527 c -0.28791,0.216175 -0.6301,0.317123 -1.00799,0.317123 -0.53263,0 -0.9072,-0.126517 -1.12703,-0.410931 -0.22331,-0.28043 -0.34917,-0.756114 -0.34917,-1.411445 v -5.526569 h 2.48402 V 20.56161 h -2.48402 v -2.887311 c -0.5401,0.187119 -1.06925,0.345681 -1.57,0.503744 v 2.383401 h -1.69221 v 1.317969 h 1.69221 v 5.807662 z m 168.5034,18.05275 c -0.5328,-0.503743 -1.1629,-0.755947 -1.94408,-0.755947 -0.79198,0 -1.44764,0.252204 -1.98044,0.792142 -0.5328,0.529313 -0.78517,1.187965 -0.78517,1.944411 0,0.785003 0.25237,1.440335 0.78118,1.944079 0.53313,0.504075 1.18813,0.756445 1.98044,0.756445 0.78119,0 1.44017,-0.25237 1.98044,-0.785169 0.52932,-0.540105 0.81008,-1.162894 0.81008,-1.944079 -0.0289,-0.792142 -0.31331,-1.44764 -0.84611,-1.95155 z m -0.25188,3.708842 c -0.46821,0.46788 -1.03704,0.683889 -1.7284,0.683889 -0.68389,0 -1.25272,-0.216009 -1.72807,-0.683889 -0.46788,-0.475352 -0.72025,-1.069418 -0.72025,-1.764431 0,-0.684221 0.21601,-1.252718 0.69136,-1.72807 0.46788,-0.467714 1.03356,-0.684221 1.75696,-0.684221 0.68422,0 1.25338,0.216507 1.7284,0.684221 0.46788,0.475352 0.71992,1.043849 0.71992,1.72807 0,0.727556 -0.21601,1.289079 -0.71992,1.764431 z m -1.41161,-1.602383 c 0.28076,-0.06475 0.50424,-0.190772 0.65899,-0.345514 0.15856,-0.162214 0.21634,-0.382042 0.21634,-0.633416 0,-0.280927 -0.0901,-0.504241 -0.28076,-0.658984 -0.21601,-0.180146 -0.56518,-0.277441 -1.00782,-0.277441 h -1.00101 v 3.513919 h 0.50424 v -1.476198 h 0.31297 c 0.21634,0 0.43235,0.215843 0.62644,0.626442 l 0.37424,0.846103 h 0.59805 l -0.46788,-0.943564 c -0.1623,-0.410433 -0.3495,-0.597884 -0.53994,-0.659151 z m -0.34568,-0.316625 h -0.53994 v -1.187965 h 0.44298 c 0.3133,0 0.5328,0.05728 0.65898,0.154743 0.12577,0.09348 0.15483,0.216009 0.15483,0.439323 0,0.40678 -0.25204,0.594231 -0.71992,0.594231 z M 212.68125,20.158483 h 0.43932 v -3.517738 h 1.16256 v -0.439323 h -2.76478 v 0.439323 h 1.16323 v 3.517738 z m 2.66433,-2.642745 c 0,-0.34236 0,-0.623121 -0.0253,-0.781185 0.0289,0.186953 0.0936,0.313304 0.12245,0.406781 l 1.35034,3.017149 h 0.21601 l 1.3535,-3.046205 c 0.0363,-0.09348 0.0652,-0.216009 0.12619,-0.377725 -0.0289,0.313304 -0.0289,0.564678 -0.0289,0.755948 v 2.664495 h 0.46821 v -3.953574 h -0.56551 l -1.22383,2.729248 c -0.0288,0.09746 -0.1266,0.287901 -0.18741,0.504241 h -0.0361 c -0.0253,-0.126351 -0.0899,-0.252203 -0.17994,-0.46788 l -1.22414,-2.765277 h -0.63358 v 3.960547 h 0.44265 v -2.642744 z"
     id="path25"
     style="stroke-width:0.166033" />
  <circle
     class="cls-1"
     cx="542.84479"
     cy="48.188255"
     r="40.361885"
     id="circle8"
     style="fill:#5c2d91;stroke-width:1.26131" />
  <path
     class="cls-2"
     d="m 514.86897,19.178154 a 40.361886,40.361886 0 1 0 56.98594,56.985935 z"
     id="path10"
     style="opacity:0.1;fill:#ffffff;stroke-width:1.26131" />
  <path
     class="cls-3"
     d="m 511.8166,54.810128 a 1.702767,1.702767 0 0 1 -1.2613,-0.529751 1.7406063,1.7406063 0 0 1 -0.51714,-1.261306 1.7658325,1.7658325 0 0 1 0.51714,-1.261312 1.690154,1.690154 0 0 1 1.2613,-0.542362 1.7279932,1.7279932 0 0 1 1.26132,0.542362 1.7532194,1.7532194 0 0 1 0.52974,1.261312 1.7279932,1.7279932 0 0 1 -0.52974,1.261306 1.7406063,1.7406063 0 0 1 -1.26132,0.529751 z"
     id="path12"
     style="fill:#ffffff;stroke-width:1.26131" />
  <path
     class="cls-3"
     d="m 536.87881,54.494804 h -3.30463 L 521.75572,36.155367 a 7.5678536,7.5678536 0 0 1 -0.73156,-1.437887 h -0.1009 a 23.611703,23.611703 0 0 1 0.12613,3.153267 V 54.494804 H 518.3628 V 31.501139 h 3.49383 l 11.50314,18.011495 q 0.71894,1.122563 0.93336,1.538792 h 0.0631 a 24.318036,24.318036 0 0 1 -0.16397,-3.380304 V 31.501139 h 2.68659 z"
     id="path14-7"
     style="fill:#ffffff;stroke-width:1.26131" />
  <path
     class="cls-3"
     d="M 555.06689,54.494804 H 542.84481 V 31.501139 h 11.65449 v 2.434324 h -8.90484 V 41.579 h 8.29941 v 2.421714 h -8.29941 v 7.971472 h 9.48504 z"
     id="path16"
     style="fill:#ffffff;stroke-width:1.26131" />
  <path
     class="cls-3"
     d="m 573.11622,33.935463 h -6.68494 v 20.559341 h -2.68659 V 33.935463 h -6.60926 v -2.434324 h 15.98079 z"
     id="path18"
     style="fill:#ffffff;stroke-width:1.26131" />
  <path
     class="cls-4"
     d="m 535.42831,70.135034 a 6.218253,6.218253 0 0 1 -2.92624,0.618039 4.7172954,4.7172954 0 0 1 -3.61996,-1.450504 5.373176,5.373176 0 0 1 -1.36221,-3.783931 5.6254378,5.6254378 0 0 1 1.52618,-4.111865 5.1965928,5.1965928 0 0 1 3.88484,-1.564019 6.218253,6.218253 0 0 1 2.52262,0.441457 v 1.261305 a 5.0452357,5.0452357 0 0 0 -2.52262,-0.630649 3.8596053,3.8596053 0 0 0 -2.96408,1.261305 4.5911645,4.5911645 0 0 0 -1.13518,3.254179 4.3767419,4.3767419 0 0 0 1.0595,3.090208 3.6073435,3.6073435 0 0 0 2.78749,1.14779 5.221819,5.221819 0 0 0 2.76227,-0.706333 z"
     id="path20"
     style="fill:#f2f2f2;stroke-width:1.26131" />
  <path
     class="cls-4"
     d="m 540.58706,70.753073 a 3.5064388,3.5064388 0 0 1 -2.68658,-1.122562 3.9226707,3.9226707 0 0 1 -0.99644,-2.812722 4.0866409,4.0866409 0 0 1 1.04689,-2.976685 3.7839268,3.7839268 0 0 1 2.81272,-1.072114 3.392921,3.392921 0 0 1 2.63613,1.046886 4.1370933,4.1370933 0 0 1 0.94598,2.888398 4.0614147,4.0614147 0 0 1 -1.02166,2.901009 3.5821174,3.5821174 0 0 1 -2.73704,1.14779 z m 0.0883,-6.899359 a 2.3081953,2.3081953 0 0 0 -1.84151,0.794628 3.2667901,3.2667901 0 0 0 -0.6811,2.194675 3.0902068,3.0902068 0 0 0 0.6811,2.118999 2.3334215,2.3334215 0 0 0 1.84151,0.78201 2.2199037,2.2199037 0 0 0 1.80368,-0.756782 3.3046294,3.3046294 0 0 0 0.63065,-2.169455 3.3550817,3.3550817 0 0 0 -0.63065,-2.182065 2.2072906,2.2072906 0 0 0 -1.80368,-0.78201 z"
     id="path22"
     style="fill:#f2f2f2;stroke-width:1.26131" />
  <path
     class="cls-4"
     d="m 550.23607,64.232105 a 1.4883445,1.4883445 0 0 0 -0.92075,-0.239648 1.5514099,1.5514099 0 0 0 -1.26131,0.731561 3.3803079,3.3803079 0 0 0 -0.51714,1.992867 v 3.859607 h -1.2613 v -7.567854 h 1.2613 v 1.576637 0 a 2.6487487,2.6487487 0 0 1 0.79463,-1.261312 1.8036717,1.8036717 0 0 1 1.18563,-0.441458 1.980255,1.980255 0 0 1 0.71894,0.100905 z"
     id="path24"
     style="fill:#f2f2f2;stroke-width:1.26131" />
  <path
     class="cls-4"
     d="m 557.62735,67.107893 h -5.33534 a 2.825332,2.825332 0 0 0 0.64327,1.94241 2.3460346,2.3460346 0 0 0 1.79106,0.681113 3.7839268,3.7839268 0 0 0 2.34603,-0.845076 v 1.135172 a 4.3893551,4.3893551 0 0 1 -2.63614,0.718951 3.2037247,3.2037247 0 0 1 -2.52262,-1.034275 4.2253849,4.2253849 0 0 1 -0.92075,-2.901009 4.1370933,4.1370933 0 0 1 0.99643,-2.875788 3.2163377,3.2163377 0 0 1 2.52262,-1.109952 2.8505582,2.8505582 0 0 1 2.29559,0.958599 4.0109624,4.0109624 0 0 1 0.80723,2.673971 z m -1.26131,-1.021665 a 2.5226179,2.5226179 0 0 0 -0.50452,-1.627085 1.7279932,1.7279932 0 0 0 -1.38745,-0.580201 1.9550288,1.9550288 0 0 0 -1.4505,0.618039 2.7874927,2.7874927 0 0 0 -0.74417,1.601865 z"
     id="path26"
     style="fill:#f2f2f2;stroke-width:1.26131" />
  <g
     id="g723"
     transform="matrix(1.801187,0,0,1.801187,1019.0985,3.723137)">
    <path
       d="m 16.147,5.154 1.09,2.05 a 6.15,6.15 0 0 0 0.824,1.024 c 0.913,0.913 1.782,1.87 2.56,2.895 1.848,2.427 3.095,5.122 3.986,8.04 0.534,1.782 0.824,3.608 0.846,5.456 0.09,5.523 -1.804,10.266 -5.634,14.208 a 16.3,16.3 0 0 1 -2.004,1.715 c -0.38,0 -0.557,-0.3 -0.713,-0.557 -0.3,-0.5 -0.468,-1.047 -0.557,-1.603 -0.134,-0.668 -0.223,-1.336 -0.178,-2.027 V 36.043 C 16.345,35.976 16.011,5.311 16.144,5.155 Z"
       fill="#599636"
       id="path696" />
    <path
       d="m 16.147,5.088 c -0.045,-0.09 -0.09,-0.022 -0.134,0.022 0.022,0.445 -0.134,0.846 -0.38,1.225 -0.267,0.38 -0.624,0.668 -0.98,0.98 -1.982,1.715 -3.54,3.786 -4.788,6.102 -1.648,3.118 -2.516,6.458 -2.76,9.977 -0.11,1.27 0.4,5.746 0.802,7.037 1.09,3.43 3.05,6.302 5.6,8.796 0.624,0.6 1.292,1.158 1.982,1.692 0.2,0 0.223,-0.178 0.267,-0.312 a 6.11,6.11 0 0 0 0.2,-0.869 c 0.2,-1.113 0.312,-2.227 0.445,-3.34 L 16.156,5.088 Z"
       fill="#6cac48"
       id="path698" />
    <path
       d="m 17.24,41.9 c 0.045,-0.512 0.3,-0.935 0.557,-1.358 -0.267,-0.11 -0.468,-0.334 -0.624,-0.58 -0.134,-0.223 -0.245,-0.5 -0.334,-0.735 -0.312,-0.935 -0.38,-1.915 -0.468,-2.873 v -0.58 c -0.11,0.09 -0.134,0.846 -0.134,0.958 -0.067,1.024 -0.2,2.027 -0.4,3.006 -0.067,0.4 -0.11,0.802 -0.356,1.158 0,0.045 0,0.09 0.022,0.156 0.4,1.18 0.512,2.383 0.58,3.608 v 0.445 c 0,0.534 -0.022,0.423 0.423,0.6 0.178,0.067 0.38,0.09 0.557,0.223 0.134,0 0.156,-0.11 0.156,-0.2 l -0.067,-0.735 v -2.05 c -0.022,-0.356 0.045,-0.713 0.09,-1.047 z"
       fill="#c2bfbf"
       id="path700" />
    <g
       transform="matrix(1.021124,0,0,1.021124,-4.376266,-1.845946)"
       id="g708">
      <path
         d="m 37.73,33.72 v 2.077 a 1.45,1.45 0 0 0 0.014,0.246 c 0.027,0.246 0.178,0.396 0.4,0.465 a 4.97,4.97 0 0 0 0.63,0.123 c 0.123,0.014 0.164,0.068 0.178,0.2 0.014,0.465 -0.027,0.52 -0.478,0.492 -1.052,-0.055 -2.105,-0.068 -3.157,0 h -0.1 c -0.328,0.014 -0.355,-0.014 -0.355,-0.342 0,-0.055 0.014,-0.123 0.014,-0.178 0,-0.1 0.068,-0.15 0.164,-0.15 0.22,-0.027 0.424,-0.082 0.63,-0.123 0.287,-0.068 0.45,-0.246 0.478,-0.533 0.04,-0.314 0.04,-0.642 0.04,-0.957 l 0.014,-3.662 a 0.56,0.56 0 0 0 -0.3,-0.52 3.89,3.89 0 0 0 -0.78,-0.328 c -0.082,-0.027 -0.164,-0.04 -0.232,-0.082 -0.2,-0.096 -0.205,-0.273 -0.014,-0.383 0.068,-0.04 0.15,-0.068 0.232,-0.082 a 12.42,12.42 0 0 0 2.432,-0.615 c 0.164,-0.055 0.205,-0.04 0.22,0.123 0.014,0.1 0,0.22 -0.014,0.314 -0.027,0.178 -0.027,0.355 -0.027,0.52 0,0.068 0.014,0.137 0.082,0.178 0.068,0.041 0.137,0 0.2,-0.04 0.287,-0.22 0.574,-0.424 0.888,-0.6 0.45,-0.246 0.93,-0.465 1.45,-0.533 0.63,-0.082 1.175,0.082 1.654,0.492 a 3.1,3.1 0 0 1 0.519,0.601 c 0.137,0.2 0.15,0.205 0.328,0.068 0.52,-0.383 1.066,-0.724 1.654,-0.97 0.615,-0.26 1.244,-0.3 1.872,-0.082 0.642,0.232 1.08,0.683 1.34,1.298 0.22,0.492 0.314,1 0.314,1.53 v 3.662 c 0,0.246 0.1,0.4 0.342,0.52 0.26,0.1 0.547,0.15 0.82,0.205 0.178,0.04 0.178,0.04 0.178,0.22 -0.027,0.45 -0.068,0.478 -0.506,0.45 a 29.42,29.42 0 0 0 -3.293,0 c -0.22,0.014 -0.22,0.014 -0.232,-0.205 v -0.068 c -0.014,-0.37 -0.014,-0.37 0.342,-0.45 l 0.355,-0.096 a 0.55,0.55 0 0 0 0.424,-0.533 l 0.04,-1.025 -0.027,-2.678 a 2.13,2.13 0 0 0 -0.15,-0.697 c -0.342,-0.834 -1.093,-1.134 -1.818,-1.052 -0.547,0.055 -1.025,0.273 -1.476,0.588 -0.096,0.068 -0.164,0.15 -0.15,0.287 0.123,0.875 0.04,1.75 0.055,2.624 v 1.9 c 0,0.342 0.137,0.506 0.465,0.588 l 0.63,0.137 c 0.096,0.014 0.15,0.055 0.15,0.164 v 0.1 c -0.014,0.383 -0.04,0.4 -0.424,0.396 -1.093,-0.055 -2.187,-0.04 -3.266,0 -0.37,0.014 -0.4,-0.027 -0.383,-0.4 0.014,-0.22 0.04,-0.232 0.246,-0.273 l 0.45,-0.082 c 0.4,-0.082 0.547,-0.232 0.574,-0.656 l 0.04,-0.916 -0.027,-2.747 c -0.027,-0.342 -0.1,-0.67 -0.287,-0.984 -0.273,-0.506 -0.7,-0.765 -1.285,-0.793 -0.588,-0.04 -1.107,0.178 -1.6,0.45 -0.342,0.2 -0.492,0.437 -0.465,0.834 v 1.995 z m 25.747,0.083 v 1.927 a 4.13,4.13 0 0 0 0.027,0.41 0.42,0.42 0 0 0 0.328,0.383 3.19,3.19 0 0 0 0.724,0.123 c 0.137,0.014 0.164,0.068 0.178,0.178 v 0.096 c -0.014,0.478 -0.068,0.533 -0.533,0.506 -1.04,-0.068 -2.077,-0.055 -3.116,0 l -0.4,0.014 c -0.082,0 -0.1,-0.04 -0.123,-0.096 a 1.39,1.39 0 0 1 0,-0.574 c 0.014,-0.082 0.068,-0.1 0.15,-0.123 0.2,-0.027 0.37,-0.068 0.56,-0.1 0.342,-0.082 0.465,-0.22 0.478,-0.574 l 0.04,-1.148 v -3.362 c 0,-0.246 -0.096,-0.396 -0.314,-0.506 -0.246,-0.137 -0.506,-0.232 -0.78,-0.328 -0.082,-0.027 -0.164,-0.055 -0.232,-0.096 -0.178,-0.123 -0.2,-0.3 -0.027,-0.437 a 0.49,0.49 0 0 1 0.273,-0.11 c 0.875,-0.137 1.722,-0.328 2.542,-0.656 0.096,-0.04 0.137,-0.014 0.178,0.068 0.041,0.082 0.055,0.178 0.04,0.273 l -0.04,0.642 c 0,0.082 -0.04,0.2 0.027,0.232 0.082,0.055 0.137,-0.068 0.205,-0.1 a 6.09,6.09 0 0 1 1.326,-0.847 c 0.424,-0.2 0.86,-0.328 1.353,-0.3 0.916,0.055 1.572,0.52 1.995,1.326 0.22,0.424 0.314,0.888 0.355,1.367 l 0.04,1 0.014,3.02 c 0.014,0.232 0.096,0.383 0.328,0.465 a 4.47,4.47 0 0 0 0.738,0.178 c 0.22,0.027 0.232,0.068 0.246,0.273 v 0.068 c -0.027,0.465 -0.055,0.478 -0.52,0.45 a 28.59,28.59 0 0 0 -3.061,0 c -0.137,0.014 -0.273,0 -0.4,0.014 -0.082,0 -0.137,-0.014 -0.15,-0.096 -0.027,-0.178 -0.055,-0.355 -0.014,-0.547 0.014,-0.082 0.055,-0.123 0.15,-0.137 l 0.63,-0.1 c 0.22,-0.055 0.342,-0.2 0.37,-0.4 l 0.027,-0.383 -0.014,-2.856 c 0,-0.328 -0.014,-0.656 -0.082,-0.984 -0.164,-0.7 -0.697,-1.2 -1.42,-1.27 -0.63,-0.068 -1.2,0.096 -1.722,0.437 -0.26,0.164 -0.37,0.396 -0.37,0.683 v 2.064 c 0,-0.04 0,-0.04 0.014,-0.04 z"
         fill="#47474a"
         id="path702" />
      <path
         d="m 103.503,29.935 c -0.15,-0.998 -0.52,-1.886 -1.162,-2.665 a 5.27,5.27 0 0 0 -2.105,-1.558 c -0.86,-0.355 -1.777,-0.465 -2.706,-0.492 -0.383,-0.014 -5.603,0.068 -5.986,0 -0.096,-0.014 -0.164,0.014 -0.22,0.096 -0.068,0.1 -0.137,0.205 -0.178,0.314 -0.164,0.37 -0.164,0.342 0.232,0.396 0.328,0.055 0.642,0.082 0.957,0.178 0.287,0.096 0.492,0.26 0.56,0.574 0.027,0.15 0.055,4.96 0.055,7.202 l -0.055,1.6 c -0.014,0.123 -0.027,0.246 -0.068,0.355 -0.055,0.164 -0.15,0.3 -0.314,0.37 a 1.62,1.62 0 0 1 -0.574,0.15 c -0.37,0.04 -0.424,0.055 -0.547,0.465 l -0.04,0.15 c -0.027,0.178 -0.014,0.205 0.164,0.205 l 4.086,0.04 1.6,-0.027 1.107,-0.137 c 1.257,-0.232 2.378,-0.752 3.334,-1.585 a 5.55,5.55 0 0 0 1.312,-1.722 c 0.383,-0.765 0.547,-1.6 0.588,-2.446 0.068,-0.478 0.04,-0.97 -0.04,-1.462 z m -1.982,1.94 c -0.055,0.875 -0.232,1.722 -0.683,2.487 -0.574,0.998 -1.394,1.695 -2.528,1.94 -0.492,0.1 -0.984,0.15 -1.5,0.082 -0.37,-0.04 -0.724,-0.082 -1.066,-0.205 -0.615,-0.22 -0.834,-0.6 -0.847,-1.2 l -0.014,-8.24 c 0,-0.492 0.22,-0.6 0.574,-0.615 0.533,-0.04 1.08,-0.027 1.613,0.027 a 6.06,6.06 0 0 1 1.654,0.4 3.98,3.98 0 0 1 1.08,0.67 c 0.738,0.63 1.23,1.42 1.5,2.35 0.22,0.752 0.26,1.517 0.22,2.282 z m 13.34,1.34 c 0,-0.082 0,-0.15 -0.014,-0.232 -0.123,-0.752 -0.52,-1.326 -1.134,-1.763 -0.396,-0.287 -0.847,-0.478 -1.312,-0.615 -0.082,-0.027 -0.15,-0.055 -0.232,-0.068 0.014,-0.068 0.055,-0.082 0.096,-0.096 0.273,-0.137 0.533,-0.287 0.765,-0.492 0.424,-0.355 0.7,-0.793 0.847,-1.326 0.082,-0.287 0.082,-0.574 0.055,-0.875 a 2.35,2.35 0 0 0 -0.998,-1.777 c -0.63,-0.465 -1.367,-0.656 -2.132,-0.67 -1.476,-0.027 -2.965,0 -4.44,0 -0.424,0 -0.847,0.027 -1.285,-0.04 -0.082,-0.014 -0.2,-0.04 -0.26,0.055 -0.1,0.178 -0.22,0.355 -0.26,0.56 -0.014,0.096 0.014,0.15 0.123,0.164 l 0.943,0.137 c 0.37,0.055 0.63,0.26 0.656,0.588 a 5.78,5.78 0 0 1 0.04,0.683 l -0.027,2.555 -0.014,5.056 c 0,0.3 -0.04,0.588 -0.096,0.888 a 0.5,0.5 0 0 1 -0.355,0.41 c -0.273,0.082 -0.533,0.164 -0.82,0.164 a 0.34,0.34 0 0 0 -0.355,0.232 c -0.055,0.123 -0.1,0.26 -0.123,0.383 -0.027,0.164 0.014,0.22 0.178,0.2 0.123,-0.014 4.633,0.096 5.48,0.014 0.506,-0.055 1,-0.123 1.503,-0.273 0.86,-0.273 1.654,-0.67 2.282,-1.34 0.52,-0.547 0.82,-1.203 0.847,-1.968 0.04,-0.178 0.04,-0.355 0.04,-0.547 z m -6.628,-5.6 0.04,-1.093 c 0,-0.205 0.082,-0.3 0.287,-0.342 0.328,-0.068 0.656,-0.04 0.984,-0.027 0.328,0.027 0.642,0.068 0.97,0.164 0.6,0.178 1.066,0.52 1.34,1.093 a 1.96,1.96 0 0 1 0.191,0.834 c 0.014,0.383 -0.014,0.752 -0.164,1.12 -0.232,0.506 -0.6,0.834 -1.134,0.93 -0.534,0.096 -2.05,0.055 -2.282,0.055 -0.205,0 -0.22,-0.027 -0.22,-0.232 V 28.83 a 8.79,8.79 0 0 1 -0.014,-1.203 z m 4.44,7.352 c -0.232,0.615 -0.656,1.04 -1.257,1.27 -0.328,0.123 -0.656,0.2 -1,0.178 -0.424,-0.014 -0.847,0 -1.27,-0.082 -0.574,-0.123 -0.834,-0.67 -0.875,-1.066 -0.068,-0.697 -0.027,-1.408 -0.04,-1.927 v -1.804 c 0,-0.22 0.027,-0.287 0.26,-0.287 l 1.285,0.014 0.875,0.1 c 0.615,0.137 1.175,0.37 1.613,0.847 0.355,0.383 0.547,0.847 0.588,1.353 0.04,0.478 0.014,0.943 -0.164,1.394 z"
         fill="#c2bfbf"
         id="path704" />
      <path
         d="m 77.95,30.85 0.355,0.055 c 0.383,0.014 0.834,-0.123 0.97,-0.656 a 1.38,1.38 0 0 0 0,-0.78 c -0.082,0 -0.123,0.068 -0.164,0.096 -0.205,0.164 -0.437,0.26 -0.683,0.287 -0.492,0.055 -0.984,0.027 -1.462,-0.15 l -0.67,-0.232 a 3.95,3.95 0 0 0 -1.45,-0.19 c -0.697,0.055 -1.353,0.287 -1.968,0.615 -0.656,0.355 -1.12,0.888 -1.34,1.613 -0.123,0.424 -0.137,0.86 -0.082,1.298 0.137,0.998 0.656,1.695 1.585,2.064 0.055,0.014 0.096,0.04 0.15,0.055 0.123,0.068 0.137,0.137 0.027,0.232 l -0.342,0.232 -0.82,0.506 c -0.205,0.123 -0.232,0.22 -0.164,0.437 a 1.43,1.43 0 0 0 0.437,0.656 2.28,2.28 0 0 0 0.629,0.383 c 0.15,0.068 0.15,0.1 0.014,0.22 l -0.78,0.56 c -0.26,0.2 -0.52,0.4 -0.738,0.656 a 1.35,1.35 0 0 0 -0.328,1.23 2.31,2.31 0 0 0 0.71,1.23 2.9,2.9 0 0 0 1.257,0.683 c 0.765,0.22 1.558,0.232 2.337,0.082 1.12,-0.205 2.1,-0.7 2.87,-1.544 0.533,-0.56 0.847,-1.216 0.875,-2 a 1.92,1.92 0 0 0 -1.476,-1.995 l -0.738,-0.137 -2.255,-0.2 c -0.246,-0.014 -0.492,-0.055 -0.697,-0.178 -0.26,-0.164 -0.328,-0.478 -0.164,-0.683 0.123,-0.15 0.273,-0.246 0.465,-0.26 l 0.437,-0.04 a 3.96,3.96 0 0 0 2.309,-1.052 2.42,2.42 0 0 0 0.697,-1.162 c 0.164,-0.588 0.164,-1.2 0.027,-1.8 -0.04,-0.15 -0.027,-0.164 0.164,-0.137 z m -3.35,6.807 c 0.082,0.014 0.164,0 0.246,0 0.574,0.027 1.162,0.068 1.722,0.22 a 3.58,3.58 0 0 1 0.533,0.205 c 0.547,0.3 0.752,0.82 0.683,1.38 -0.082,0.615 -0.424,1.052 -0.957,1.34 -0.355,0.2 -0.752,0.287 -1.162,0.328 -0.15,0.014 -0.287,0 -0.437,0 -0.478,0.014 -0.943,-0.04 -1.394,-0.232 -0.314,-0.123 -0.574,-0.3 -0.806,-0.547 -0.478,-0.478 -0.7,-1.353 0.014,-2.064 0.437,-0.4 0.93,-0.683 1.558,-0.63 z m 1.558,-4.264 c -0.287,0.724 -0.916,0.943 -1.544,0.847 -0.574,-0.082 -0.998,-0.396 -1.27,-0.916 -0.355,-0.697 -0.45,-1.42 -0.246,-2.173 0.15,-0.56 0.492,-0.984 1.093,-1.08 0.765,-0.137 1.5,0.137 1.886,0.902 0.2,0.37 0.287,0.82 0.287,1.462 -0.014,0.26 -0.068,0.615 -0.205,0.957 z M 58.94,32.463 c -0.123,-0.738 -0.396,-1.408 -0.902,-1.968 -0.752,-0.834 -1.708,-1.2 -2.788,-1.203 -0.943,-0.014 -1.83,0.26 -2.624,0.752 a 3.56,3.56 0 0 0 -1.599,2.091 c -0.232,0.793 -0.22,1.6 -0.04,2.405 0.478,2.16 2.146,3.088 4.14,2.952 0.588,-0.04 1.148,-0.232 1.68,-0.492 0.793,-0.37 1.367,-0.957 1.763,-1.736 0.314,-0.642 0.45,-1.326 0.437,-2.105 L 58.939,32.462 Z M 57,35.497 a 1.66,1.66 0 0 1 -1.408,1.148 c -0.6,0.082 -1.162,-0.068 -1.667,-0.424 a 2.84,2.84 0 0 1 -0.861,-1.025 c -0.56,-1.148 -0.656,-2.35 -0.37,-3.58 a 2.05,2.05 0 0 1 0.574,-0.998 c 0.506,-0.465 1.093,-0.574 1.75,-0.437 0.63,0.137 1.107,0.478 1.5,0.998 0.393,0.52 0.574,1.12 0.683,1.75 0.055,0.314 0.055,0.642 0.068,0.847 0,0.656 -0.055,1.2 -0.26,1.722 z m 31.8,-2.924 c -0.1,-0.793 -0.396,-1.517 -0.957,-2.118 -0.738,-0.806 -1.695,-1.148 -2.76,-1.162 -0.916,-0.014 -1.763,0.246 -2.542,0.697 -0.875,0.52 -1.476,1.257 -1.708,2.255 a 4.77,4.77 0 0 0 0.328,3.252 c 0.45,0.957 1.216,1.572 2.228,1.845 1.12,0.3 2.187,0.164 3.225,-0.342 0.902,-0.437 1.544,-1.12 1.913,-2.05 0.22,-0.547 0.3,-1.134 0.314,-1.818 0.014,-0.123 -0.014,-0.342 -0.04,-0.56 z m -1.886,2.747 c -0.22,0.738 -0.683,1.216 -1.462,1.326 -0.574,0.082 -1.12,-0.055 -1.613,-0.383 -0.424,-0.287 -0.724,-0.67 -0.943,-1.12 -0.246,-0.478 -0.383,-0.984 -0.437,-1.503 -0.082,-0.642 -0.082,-1.27 0.068,-1.913 a 1.95,1.95 0 0 1 0.123,-0.369 c 0.383,-0.957 1.23,-1.394 2.228,-1.175 0.67,0.15 1.175,0.52 1.558,1.08 0.37,0.547 0.547,1.148 0.63,1.8 0.04,0.26 0.055,0.533 0.04,0.765 0,0.533 -0.04,1.025 -0.2,1.503 z"
         fill="#47474a"
         id="path706" />
    </g>
  </g>
  <path
     d="m 1317.9864,4.7727632 c -6.2752,0 -10.9186,5.4925098 -10.7107,11.4489908 0.1996,5.72257 -0.06,13.13412 -1.9255,19.17825 -1.8724,6.06109 -5.0369,9.90198 -10.2068,10.39495 v 5.56597 c 5.1699,0.49405 8.3344,4.333 10.2066,10.39496 1.866,6.04412 2.1251,13.45568 1.9255,19.17824 -0.2079,5.95563 4.4355,11.44899 10.7118,11.44899 h 64.3006 c 6.2752,0 10.9178,-5.49251 10.7099,-11.44899 -0.1996,-5.72256 0.06,-13.13412 1.9255,-19.17824 1.8724,-6.06196 5.0292,-9.90242 10.1992,-10.39496 v -5.56597 c -5.1698,-0.49405 -8.3266,-4.333 -10.1992,-10.39495 -1.866,-6.04327 -2.1251,-13.45568 -1.9255,-19.17825 0.2079,-5.955621 -4.4347,-11.4489908 -10.7099,-11.4489908 h -64.3023 z m 51.7192,53.9299108 c 0,8.20182 -6.1178,13.17601 -16.2705,13.17601 h -17.2826 a 1.8640592,1.8640592 0 0 1 -1.864,-1.86406 v -42.87315 a 1.8640592,1.8640592 0 0 1 1.864,-1.86406 h 17.1842 c 8.4656,0 14.0215,4.58561 14.0215,11.62599 0,4.94154 -3.7375,9.36541 -8.4991,10.14041 v 0.25777 c 6.4819,0.711 10.8465,5.20037 10.8465,11.40109 z m -18.1549,-27.51625 h -9.8543 v 13.91923 h 8.2997 c 6.4162,0 9.954,-2.58365 9.954,-7.2017 -7e-4,-4.32785 -3.0423,-6.71753 -8.3994,-6.71753 z m -9.8543,19.44202 v 15.33929 h 10.2169 c 6.6803,0 10.2188,-2.68053 10.2188,-7.71808 0,-5.03756 -3.6377,-7.62206 -10.6485,-7.62206 h -9.7872 z"
     fill="#7952b3"
     fill-rule="evenodd"
     id="path725"
     style="stroke-width:0.214803" />
</svg>
